# xmcd
#
# Track frame offsets: 
#        150
#        12863
#        34488
#        57900
#        80925
#        100162
#        118924
#        147174
#        164287
#        184874
#        202361
#        228699
#        252039
#        267974
#
# Disc length: 3791 seconds
#
# Revision: 0
# Processed by: cddbd v1.5.1PL0 Copyright (c) Steve Scherf et al.
# Submitted via: ExactAudioCopy v0.95a4
#
DISCID=d10ecd0e
DTITLE=Barney Kessel - Blue Guitar
DYEAR=2004
DGENRE=Blues
TTITLE0=Willow Weep For Me
TTITLE1=On A Clear Day, You Can See Forever
TTITLE2=How High The Moon
TTITLE3=Aquarius
TTITLE4=More Than You Know
TTITLE5=The Look of Love
TTITLE6=Honeysuckle Rose
TTITLE7=ET Maintenant
TTITLE8=Little Star
TTITLE9=Out of Nowhere
TTITLE10=It Don't Mean A Thing
TTITLE11=Tea For Two
TTITLE12=Limehouse Blues
TTITLE13=Blue Moon
EXTD=
EXTT0=
EXTT1=
EXTT2=
EXTT3=
EXTT4=
EXTT5=
EXTT6=
EXTT7=
EXTT8=
EXTT9=
EXTT10=
EXTT11=
EXTT12=
EXTT13=
PLAYORDER=
